<?xml version="1.0" encoding="UTF-8"?>
<svg version="1.1" viewBox="0 0 2047 2048" width="788" height="788" xmlns="http://www.w3.org/2000/svg">
<path transform="translate(0)" d="m0 0h2047v2048h-2047z"/>
<path transform="translate(664,639)" d="m0 0 14 1 12 4 13 7 14 11 12 11 11 12 11 14 26 32 9 11 11 13 9 11 11 13 8 10 9 10 11 7 11 5 18 4 8 1-2 4-7 8-11 8-4 2 71 1 1 2-1 40-16 10-6 3-53 1v312l1 33 4 31 5 24 10 30 8 16 9 16 12 16 11 12 10 9 14 10 16 8 12 5 22 7 24 5 17 2h36l22-3 9-3 6-10 6-16 3-16 1-21 10-7 17-11 29-17 9-5h3l1 14-2 16-5 15-8 16-9 11-8 8-13 10-19 12-21 13-22 13-16 8-16 7-19 5-26 4-11 1h-16l-28-3-22-5-17-5-19-8-15-8-16-12-15-14-11-13-10-15-12-23-9-24-6-23-4-23-3-29-1-19v-66l-12 11-19 14-22 14-18 10-18 8-22 7-18 4-13 2h-39l-18-4-19-8-11-7-10-8-17-17-11-15-9-17-7-19-4-17-2-17v-30l2-22 4-25 7-26 11-28 10-19 12-18 8-10 5-5-1-5-13-28-11-22 2-4 24-15 28-17 3-2h3l14 24 10 17v2l24-16 14-8 20-9 17-5 21-2 16-10 6-4 56-1-10-8-10-10-9-11-13-15-9-11-11-13-26-30-10-13-12-14-13-12-14-10-14-8-10-4-16-4 3-3 19-12 25-15z" fill="#FFD440"/>
<path transform="translate(1141,845)" d="m0 0h1v72h129l1 1v18l-2 5h-8v96l-7-6-7-9v-8l1-3-20 12-3 1h-9l-6-4-14-13-7-8-10-10-3-5 1-7 7-8 15-11 15-9 3-1h8l11 4 10 9 1-19-106-1 1 46 3 6 10 7 6 2h6l5-5 4 2 3 3-1 5-7 10-7 6-8 1-11-4-10-6-7-8-1-3v-62h-6v25l-4 1-13-2-15 1-20 4 3 7 6 2 13-1 9-1h9l5 3 6 10 3 10v12l-3 5-5 4-9 3-18 3v2l5 4 5 6v3l-11 5h-4l-5-10-7-7-10-8-10-9-10-12-1 35-7-6-6-7-1-10-10 9-5 2-9-1-10-5-9-7-10-10-4-8v-52h-67v23l5-5 9-7 7-3 8 1 13 7 10 8 5 5 3 4v64l-7-6-7-8-1-31-4-6v-2l-4-2-15-9-5-2h-10l-5 4-1 2-1 59-4-2-10-11v-83h-11v-23l4-1h246v-57l9-11z" fill="#FFFEFE"/>
<path transform="translate(583,995)" d="m0 0 2 2 11 23 16 34 9 20 18 37 11 24 1 4 14-7 20-13 18-11-1-6-10-22-4-9v-2l5 2 19 10 10 6h5l15-10 14-21 12-21 9-19 5-13h1v84l-4 12-8 17-10 16-11 14-14 15-12 10-18 11-16 6-25 6-16 2h-13l-17-2-14-5-11-7-10-9-9-10-9-15-6-15-3-15-1-10v-14l2-26 4-21 6-21 8-19 6-11z"/>
<path transform="translate(957,1055)" d="m0 0h34l1 4 1-4h5l1 1 1 9v13l-2 3h-5l-1 15 3 1v2l5-2 3 1h7l2-1v-16l-3-1-1-2v-6l3-3 1-6-2-4-2 3h-2l1-6 1-1h10l1 10 3 1-2-7v-4h13l3 7 5-2-1-5 7 1 1 1 1 23-1 1h-7v53l-4 4h4v10l8 1 6-2 6-20 11-31 4-1 1-3h-3l1-9-3-2v-26h53l3 1 1 8-2 19h-4l19 55v6l2 4 1 5 1-4h5l1 2v21l-1 2-6 1h-28l-6-1v-24l3-1-1-4-2-1h-26l2 5 1 1v17l-2 2 2 2v3l-12 1h-13l-1-1-1-9v3 6l-9 1-1-1-1-7-1 7-5 1h-28l-10-1v-25l1-1h6l1-19-2-2-20-1 1 22h5l1 1v25l-2 1h-38l-2-2v-23l4-2h3v-47l3-3 5 1v-2h-4l1-18 1-2h-3l1 7-2 14-2-1v-16h-6v-5l-1-1z" fill="#FBFBF9"/>
<path transform="translate(1218,1055)" d="m0 0 5 1 9 10 7 10v27l-1 4-5 5 2 4 4 5v28h6 2l5-1 2-5 3-12 11-32 2-3 4-2-3-2 2-8-4-3v-25l3-1h51l3 1v15l-1 11-5 1 11 30 8 24 1 8 2 7v2h2l-1-5 2-1 4 2v24l-7 1h-31l-2-1-1-3 1-22 2-1-2-4h-24l-2 1v3l3 3-1 16h-2l3 5v2l-12 1h-25l-1-2v-5l-2 6-2 1h-27l-6-1 3-1-1-3-4-2 3-2-2-4h3l1 1 1-4h-4v-27h2v-5l-1-2h2l1-16 1-5-1-6 1-2 1-17 2-5-3-1z" fill="#FAF9F8"/>
<path transform="translate(1355,1055)" d="m0 0h16l2 2 2-2h10l5 3 1 6-3 43h3v-14l-1-3 2-7 2-16 3 4 8 17 1 9 5 2v2h-5v19l4 3 1-8h-3l1-10 6-8 20-40 2-2h12l21 1 1 1v12l-1 14-1 1h-5l1 5-2 2-1-3-5 24 1 5 3 7-3 7-3 23h2v-14l2-9 3-6h2v22h5l1 1 1 11v14l-4 2h-17l-21-1-1-1v-11l1-14 4-1 2 1v-32l-2 1v6l-7 14-12 21-3 1-1-5 2-4-4 1-5-8-11-20-2-8-3-1 2 6v24l1 4 5 1 1 1 1 9v14l-3 2h-22-3-11l-3-1-1-9v-14l2-3h5l1-9-1-12v-47l-3 4h-3l-1-16v-11z" fill="#F9F8F6"/>
<path transform="translate(680,911)" d="m0 0h13l10 3 11 8 7 10 5 12 2 12v17l-5 25-6 18-10 19-13 16-9 8-3-2-9-20-15-35-26-60 6-7 8-8 14-10 15-5z"/>
<path transform="translate(1157,1055)" d="m0 0h13l1 5h4l1-5h7l-1 6 3 4 3 1-1-7 2-4h4v7h2v-7h17l1 1v27l2 4-2 36-3-1-1-6v-13l-1-3 1-3v-9l-3-5-11 1-2-1v16l1 13h3l-3-6 3-4h8l1 2 1 5 1 7-2 2v4l3 3-1 1h-9l-3-3v-6l-2-1 1 10-2 2v19l6 3-1 2v22l-3 1-2-2 1-2h-5v4h-29l-3-1v-18l1-8 6-1v-63h-7z" fill="#FAFAF8"/>
<path transform="translate(984,941)" d="m0 0h125l-1 4h-31l-16 4-8 4-3 3 1 9 10 20 8 6 5 1 16-1 12-1 7 2 2 5-3 3-14 4-6 1h-18l-11-4-9-8-1-2-8 2v-46h-13v50l-3 5-9 1-12-5-9-6-9-9-2-4z"/>
<path transform="translate(893,1055)" d="m0 0h13l2 2 2-2h7l3 5-1 5 1 5 3 1-1-2v-13l1-1h11l4 3 2 5 1 7-1 4h3l3 13v6h-4l3 3v3h-22v-20h-2v4l-9-2-1-4-1-16-4-1-1 1v14l2 1-1-3v-9h3v12l-2 5-5 5-1 10 2 6 2 5-1 15 1 5 2-22 3 2 1 15 1 4-1 4h-20l-7-4-7-7-4-6-2-16v-18l4-9 9-10 3-3z" fill="#F7F7F5"/>
<path transform="translate(929,1104)" d="m0 0 8 2 9 10v3l2 1-2 1 1 9-1 2 2 1v-12h2l2 4v30l-6 9-6 7-5 3-17 1-3-1-7 1-1-1v-25l1-1 13-1 1-5v-7l-2-4-6-2v-11l-1-1v-8l2-4h8l1 10v2l2 1-1-13z" fill="#FAF9F6"/>
<path transform="translate(873,1133)" d="m0 0h27l1 1 1 17 1 4-1 19-1 1h-9l-6-2-5-5-7-9-2-5v-20z" fill="#F8F7F5"/>
<path transform="translate(1229,966)" d="m0 0 8 1 6 5 4 6-1 7-12 9-15 9h-6l-6-4-7-8v-5l7-7 14-9z"/>
<path transform="translate(1087,1065)" d="m0 0h1l2 18 1 4-2 4 4 1-2 4h2v4l-2 1 1 20 2 14v7h-3l-3-30-2-13-1-27z"/>
<path transform="translate(1284,1065)" d="m0 0h1l2 16 1 6-1 5 3 1-1 4h2l-1 3h-2l3 33 1 8h-4l-2-26-2-12-1-15v-17z"/>
<path transform="translate(1171,1104)" d="m0 0 3 1 1 19v3l3 3h-4l2 12 2 9 2 2 1 9v10l-4-4-4-27-1-5z"/>
<path transform="translate(944,1068)" d="m0 0 4 2 3 6 1 10v13l-5-1-1-14-2-8z" fill="#FFFEFC"/>
<path transform="translate(1369,1108)" d="m0 0 6 2-2 4 1 6v13l-2 5 2 3-5 2-4-1 3-2h2v-9l-4-1v-3l5 1v-2h-2l1-6-1-1z"/>
<path transform="translate(1297,1103)" d="m0 0 2 2 4 12v3h-12l1-6 4-10z"/>
<path transform="translate(1099,1103)" d="m0 0 2 1 4 12v4h-12l3-10z"/>
<path transform="translate(1182,1073)" d="m0 0h4v5l2 3 1 6v11l-1 3-3-1 1-2v-9l-5-1v-2l3-1-1-8h-2z"/>
<path transform="translate(933,1124)" d="m0 0h2l-2 6v7l5 2-2 2 1 6 1 4h-3l-1 3-1-2 1-4-2-2-1-6v-14z"/>
<path transform="translate(1462,1102)" d="m0 0h2v21h-2l-3-6 1-11z" fill="#fff"/>
<path transform="translate(1437,1076)" d="m0 0h1v13l-2 20v3h-2l-1-8 2-15-4-2 5-2z"/>
<path transform="translate(980,1075)" d="m0 0h1v13l-2 13-3 5-1-3 2-6 1-10 1-2h-2v2l-3-1 1-2h4z"/>
<path transform="translate(776,894)" d="m0 0h6l1 1v13l-3-4-4-7z"/>
<path transform="translate(934,1158)" d="m0 0 3 3-1 7-1 4-5-1 4-9-3-1z"/>
<path transform="translate(1405,1126)" d="m0 0h6v10l-6-1v-2l2-1v-2l-2-1z"/>
<path transform="translate(1370,1082)" d="m0 0h3l-1 6-2 7h-3l1-11z"/>
<path transform="translate(1035,1064)" d="m0 0h8l1 6h-6l-3-3z" fill="#060606"/>
<path transform="translate(924,1119)" d="m0 0h2l1 3v23l-2 1z"/>
<path transform="translate(927,1065)" d="m0 0h5l-1 7-4 1z"/>
<path transform="translate(1148,1162)" d="m0 0 2 1-2 6-1 4-4-8z"/>
<path transform="translate(1345,1162)" d="m0 0 3 2-3 4 1 4h-3l-2-5v-3z"/>
<path transform="translate(993,1068)" d="m0 0 3 1-1 9-4-2 1-7z"/>
<path transform="translate(1212,1147)" d="m0 0 2 2v9l-3 1v-9z" fill="#fff"/>
<path transform="translate(891,1104)" d="m0 0h3v12l1 8-2-2-1-3z"/>
<path transform="translate(1189,1152)" d="m0 0 4 1v5h-5l-1-4z"/>
<path transform="translate(1019,1074)" d="m0 0 5 1v5l2 3-2 1-2-2-3-1v-2l2-2z"/>
<path transform="translate(1203,1062)" d="m0 0 4 2v6h-4l-1-7z"/>
<path transform="translate(1408,1138)" d="m0 0h3v7l-2 1-2-1v-6z"/>
<path transform="translate(906,1064)" d="m0 0h3v9h-3z" fill="#fff"/>
<path transform="translate(914,1153)" d="m0 0 2 1 1 8-4-2-1-6z"/>
</svg>
