<svg width="57.667" height="22.767" viewBox="0 0 57.667 22.767" xmlns="http://www.w3.org/2000/svg"><g id="svgGroup" stroke-linecap="round" fill-rule="evenodd" font-size="9pt" stroke="#eaff00" stroke-width="0.65mm" fill="#bfff00" style="stroke:#eaff00;stroke-width:0.65mm;fill:#bfff00"><path d="M 2.867 22.767 L 0 22.767 L 0 0 L 3.133 0 L 21.867 19.267 L 22 19.267 L 21.867 17.167 L 21.867 0 L 24.733 0 L 24.733 22.767 L 21.567 22.767 L 2.933 3.6 L 2.8 3.6 L 2.867 5.734 L 2.867 22.767 Z M 49.2 22.767 L 32 22.767 L 32 0 L 48.7 0 A 13.569 13.569 0 0 1 54.4 1.217 Q 57.067 2.434 57.067 6.034 A 5.493 5.493 0 0 1 56.917 7.353 A 3.856 3.856 0 0 1 56 9.084 Q 54.933 10.234 53.433 10.767 L 53.433 10.8 Q 55.3 11.3 56.483 12.634 A 4.532 4.532 0 0 1 57.493 14.622 Q 57.667 15.345 57.667 16.2 A 7.572 7.572 0 0 1 57.432 18.151 A 4.882 4.882 0 0 1 55 21.284 A 11.735 11.735 0 0 1 49.2 22.767 Z M 34.933 12.167 L 34.933 20.334 L 49.2 20.334 A 10.31 10.31 0 0 0 50.725 20.228 Q 51.513 20.11 52.149 19.859 A 4.35 4.35 0 0 0 53.3 19.2 A 3.62 3.62 0 0 0 54.686 16.572 A 4.698 4.698 0 0 0 54.7 16.2 A 4.129 4.129 0 0 0 54.495 14.868 A 3.393 3.393 0 0 0 53.3 13.234 Q 52.27 12.449 50.537 12.241 A 11.272 11.272 0 0 0 49.2 12.167 L 34.933 12.167 Z M 34.933 2.467 L 34.933 9.7 L 48.7 9.7 Q 51.4 9.7 52.717 8.717 A 3.119 3.119 0 0 0 54.012 6.451 A 4.067 4.067 0 0 0 54.033 6.034 A 3.881 3.881 0 0 0 53.885 4.928 A 2.812 2.812 0 0 0 52.717 3.35 A 4.29 4.29 0 0 0 51.62 2.838 Q 50.451 2.467 48.7 2.467 L 34.933 2.467 Z"/></g></svg>